<svg xmlns="http://www.w3.org/2000/svg" xmlns:xlink="http://www.w3.org/1999/xlink" width="475.612" height="115.234" viewBox="0 0 475.612 115.234">
  <defs>
    <clipPath id="clip-path">
      <rect id="Rectangle_778" data-name="Rectangle 778" width="475.612" height="115.234" fill="none"/>
    </clipPath>
  </defs>
  <g id="Spendwise" clip-path="url(#clip-path)">
    <path id="Path_4092" data-name="Path 4092" d="M420.87,29.066c-2.775,5.917-5.466,11.628-8.138,17.348-4.478,9.577-8.984,19.135-13.387,28.74a3.34,3.34,0,0,1-3.631,2.333c-5.513-.151-5.4-.056-5.974-5.485-1.1-10.6-2.343-21.186-3.537-31.788a19.222,19.222,0,0,0-.517-1.966c-3.434,7.159-6.689,13.97-9.934,20.781-2.662,5.579-5.353,11.139-7.893,16.774-.687,1.524-1.675,1.656-3.076,1.656-5.372,0-5.372,0-5.372-5.287V25.491c0-1.816.433-2.333,2.277-2.3,5.1.1,5.1,0,5.1,5.061V63.309l.414.056,12.333-26.7c1.373-2.945,2.822-5.88,4.083-8.862a2.183,2.183,0,0,1,2.23-1.439c6.444-.31,6.369-.329,6.943,5.9,1.063,11.506,2.211,23,3.349,34.7.894-.527,1.016-1.355,1.308-2,5.231-12.051,10.5-24.1,15.7-36.21.809-1.882,1.881-2.578,3.82-2.4,2.182.207,4.045.169,5.353-2.437s4.9-2.822,6.83-1.185c1.74,1.468,1.816,4.318.169,6.407-1.882,2.343-5.109,2.954-7.131,1.317a15.4,15.4,0,0,1-1.317-1.392" transform="translate(-21.291 -1.285)" fill="#fea900"/>
    <path id="Path_4093" data-name="Path 4093" d="M63.427,27.913c-6.971,7.159-14.008,14.281-20.885,21.5A5.466,5.466,0,0,1,38.1,51.29c-4.431-.094-8.853,0-13.782,0,4.638-4.8,8.965-9.248,13.274-13.726Q46.2,28.6,54.791,19.634a6.679,6.679,0,0,1,4.2-4.271c4.7-4.817,9.5-9.605,14.177-14.469,1.1-1.185,1.7-1.176,2.869-.047q24.657,23.867,49.418,47.631c.282.273.527.583,1.3,1.439H110.484c-.884,0-1.355-.847-1.882-1.4L76.147,17.357c-.4-.4-.837-.771-1.392-1.279L67.539,23.7a12.079,12.079,0,0,1-4.111,4.215" transform="translate(-1.441 0)" fill="#fff"/>
    <path id="Path_4094" data-name="Path 4094" d="M56.241,100.394C49.176,93.564,42.017,86.8,35.083,79.857c-3.086-3.076-5.8-6.52-8.683-9.784H41.029c.941,0,1.43.677,1.994,1.223l19.69,18.909c.583.564,1.214,1.072,1.825,1.609a8.467,8.467,0,0,1,4.309,4.149c2.013,1.994,4.092,3.942,6.011,6.021,1.148,1.261,1.882,1.148,3-.066,9.68-10.1,19.483-20.085,29.164-30.227a7.749,7.749,0,0,1,6.519-2.822c4.092.226,8.213.056,12.606.056-2.822,2.945-5.551,5.8-8.288,8.627Q98.1,97.882,78.471,118.231c-1.43,1.5-2.164,1.43-3.584,0-4.7-4.629-9.53-9.088-14.309-13.613a8.768,8.768,0,0,1-4.3-4.224" transform="translate(-1.564 -4.079)" fill="#fff"/>
    <path id="Path_4095" data-name="Path 4095" d="M184.137,62.56v2.07c-.16.141-.442.282-.461.442-.837,8.467-9.624,13.989-19.069,13.02-5.09-.527-9.69-2.088-13.03-6.256a12.654,12.654,0,0,1-2.709-6.679c-.15-1.374.32-1.75,1.562-1.609a6.961,6.961,0,0,0,1.468,0c2.681-.245,4.582-.094,5.645,3.349,1.251,4.2,6.83,5.946,12.089,4.7,4.44-1.063,6.849-3.923,6.764-7.987-.075-3.622-2.3-5.645-5.362-6.8s-6.35-1.957-9.53-2.926c-1.007-.31-2.023-.611-3-.941-6.7-2.578-9.662-6.726-9.408-13.171.226-6.068,4.205-10.95,10.612-12.747,5.87-1.646,11.609-1.355,16.934,1.806a13.5,13.5,0,0,1,6.463,9.342c.226,1.063.094,1.731-1.242,1.58a11.373,11.373,0,0,0-2.192,0c-2.484.207-4.158,0-5.485-2.973-2.343-5.259-12.1-5.964-15.937-1.6a7.112,7.112,0,0,0,2.032,10.922c2.926,1.693,6.237,2.3,9.408,3.227a40.829,40.829,0,0,1,7.075,2.6,12.061,12.061,0,0,1,6.9,9.408c.056.423-.2,1.016.508,1.185" transform="translate(-8.817 -1.543)" fill="#fff"/>
    <path id="Path_4096" data-name="Path 4096" d="M281.695,42.794c4.346-4.7,9.408-6.068,15.128-5.287,8.467,1.157,13.509,6.943,13.773,16.2.216,7.648,0,15.306.066,22.955,0,1.2-.282,1.684-1.618,1.731-5.579.207-5.579.263-5.579-5.306,0-6.021.094-12.051,0-18.072-.169-8.542-6.482-13.171-14.535-10.772-4.553,1.355-7.206,5.447-7.263,11.487q-.1,10.259,0,20.509c0,1.731-.48,2.183-2.183,2.154-5.127-.056-5.127,0-5.127-5.033q0-16.5-.047-32.927c0-1.806.433-2.606,2.286-2.3a4.778,4.778,0,0,0,.734,0c4.224,0,4.224,0,4.365,4.7" transform="translate(-16.249 -2.21)" fill="#fff"/>
    <path id="Path_4097" data-name="Path 4097" d="M442.914,78.96a17.48,17.48,0,0,1-10.01-2.6A10.207,10.207,0,0,1,428.06,67.8c-.057-1.223.32-1.882,1.646-1.731a15.2,15.2,0,0,0,2.926,0c1.806-.207,2.822.122,2.869,2.324,0,1.477,1.176,2.606,2.54,3.368,3.6,2.013,7.263,1.646,10.772,0,3.763-1.778,3.9-5.823.451-8.119-3.01-2-6.585-2.719-9.822-4.252-3.565-1.684-6.717-3.763-7.526-8.025a10.188,10.188,0,0,1,5.2-11.383,19.3,19.3,0,0,1,17.63-.941,10.185,10.185,0,0,1,6.651,9.163c.1,1.646-.207,2.719-2.2,2.39a8,8,0,0,0-1.957,0c-1.74.151-3.048.085-3.02-2.361a4.4,4.4,0,0,0-2.606-3.6,9.9,9.9,0,0,0-9.822-.113c-3.716,1.882-3.848,6.068-.423,8.467,2.286,1.609,4.986,2.342,7.526,3.415a30.8,30.8,0,0,1,5.645,2.822,9.859,9.859,0,0,1,.48,16.059c-3.556,2.822-7.742,3.622-12.136,3.763" transform="translate(-25.357 -2.213)" fill="#fea900"/>
    <path id="Path_4098" data-name="Path 4098" d="M54.736,100.508a30.414,30.414,0,0,1,4.3,4.224c-3.368,3.424-6.755,6.811-10.085,10.273-.941.941-1.486,1.3-2.681.151Q24.359,93.932,2.326,72.821c-.5-.489-1.185-.894-1.326-1.834,4.13-.367,7.7-.668,11.233,2.935C23.211,85.1,34.726,95.814,45.987,106.736c1.157,1.119,1.816,1.148,2.822-.056,1.882-2.136,3.9-4.13,5.88-6.19" transform="translate(-0.059 -4.193)" fill="#fea900"/>
    <path id="Path_4099" data-name="Path 4099" d="M57.548,15.622a26.558,26.558,0,0,1-4.2,4.28c-1.938-1.882-3.961-3.631-5.767-5.645-1.289-1.411-2.07-1.421-3.424,0C34.894,24,25.533,33.619,16.2,43.262c-2.211,2.277-4.506,4.478-6.585,6.849a5.118,5.118,0,0,1-4.638,1.994c-1.609-.151-3.236,0-4.854,0-.367-.79.329-1.044.677-1.4Q22.438,28.379,44.123,6.036c1.411-1.449,2.088-1.261,3.377,0,3.264,3.283,6.7,6.4,10.066,9.577" transform="translate(-0.001 -0.297)" fill="#fea900"/>
    <path id="Path_4100" data-name="Path 4100" d="M420.069,78.4c-3.65,0-3.669,0-3.029-3.6,2-11.449,4.092-22.879,5.974-34.357.367-2.267,1.505-2.39,3.293-2.361,4.544.075,4.5,0,3.707,4.422-1.938,10.809-3.81,21.638-5.729,32.419-.621,3.49-.649,3.481-4.215,3.481" transform="translate(-24.686 -2.256)" fill="#fea900"/>
    <path id="Path_4101" data-name="Path 4101" d="M65.89,29.4,70,25.19,97.556,51.776c-4.469-.188-8.109.941-11.562-2.822C79.653,42.1,72.635,35.868,65.89,29.376" transform="translate(-3.903 -1.492)" fill="#fea900"/>
    <path id="Path_4102" data-name="Path 4102" d="M71.249,95.976,66.94,91.828c6.134-6.275,12.437-12.4,18.317-18.909,2.54-2.822,5.155-4.186,8.843-3.763a28.214,28.214,0,0,0,3.048,0l-25.9,26.821" transform="translate(-3.965 -4.092)" fill="#fea900"/>
    <path id="Path_4103" data-name="Path 4103" d="M226.85,53.229c-1.345-7.14-5.231-12.446-12.315-14.761-7.282-2.342-13.989-1.176-19.587,4.45-.32.329-.48,1.072-1.232.828-.235-5.72-.235-5.645-5.3-5.7-1.769,0-2.126.555-2.107,2.211.075,7.658,0,15.316,0,22.973a1.439,1.439,0,0,0,0,2.07V91.687c0,5.485,0,5.419,5.428,5.4,1.477,0,1.881-.357,1.881-1.882-.094-6.924-.056-13.848,0-20.772,0-.659-.348-1.43.348-2.06.3.32.574.612.856.941A18.345,18.345,0,0,0,221.77,73.1c5.221-5.645,6.388-12.5,5.033-19.812m-24.817,18.3c-5.259-2.06-8.373-7.159-8.326-13.632.066-10.348,9.088-16.934,18.2-13.171,5.428,2.22,7.6,6.773,8.044,12.324.865,10.64-8.467,18.185-17.874,14.478" transform="translate(-11.011 -2.211)" fill="#fff"/>
    <path id="Path_4104" data-name="Path 4104" d="M355.049,28.42c0-5.08,0-4.986-5.09-5.09-1.882,0-2.333.489-2.3,2.3.122,5.645.047,11.364.047,17.047l-.762.461a4.234,4.234,0,0,0-.583-1.1,18.627,18.627,0,0,0-24.9-1.458c-7.216,5.833-8.467,13.82-6.679,22.343,1.505,7.065,5.7,12.23,12.87,14.318s13.528.818,18.815-4.7c.263-.282.452-.941,1.176-.6,0,.3.066.611.075.941.094,4.7.1,4.553,4.7,4.751,2.267.094,2.653-.659,2.644-2.738-.085-15.476-.047-30.96-.047-46.436m-9.408,37.085c-3.048,5.381-9.878,7.62-15.993,5.24-5.052-1.985-8.138-7.122-8.128-14.713.207-4.375,1.882-9.107,7.244-11.694a12.512,12.512,0,0,1,13.782,1.4c5.494,4.121,6.83,13.1,3.067,19.756" transform="translate(-18.604 -1.382)" fill="#fff"/>
    <path id="Path_4105" data-name="Path 4105" d="M240.178,60.915h25.4c4.873,0,4.873,0,4.7-4.986-.273-9.906-6.454-16.774-16.492-18.335-9.586-1.5-18.58,3.688-21.543,12.5-3.7,11.026.075,26.247,15.353,28.656,9.3,1.468,18.542-3.359,21.478-11.449.47-1.317.63-2.145-1.261-1.957a31.124,31.124,0,0,1-4.393,0,1.882,1.882,0,0,0-2.07,1.195c-2.615,4.967-7.225,6.99-13.171,5.927a12.089,12.089,0,0,1-9.662-10.047c-.254-1.58.555-1.524,1.618-1.515m5.908-16.36a12.719,12.719,0,0,1,13.274,2.23,9.558,9.558,0,0,1,2.39,3.057c2.173,4.252,1.637,5.155-3.048,5.155H238.569c.64-4.977,2.822-8.721,7.526-10.442" transform="translate(-13.68 -2.212)" fill="#fff"/>
    <path id="Path_4106" data-name="Path 4106" d="M493.86,38.847a21.242,21.242,0,0,0-13.425-.715C469.081,41.02,461.62,51.6,462.307,64.144c.329,6.444,3.471,11.092,9.52,13.556,10.348,4.224,23.717-1.505,28.082-12.324-1.788,0-3.33.113-4.836,0a3.942,3.942,0,0,0-4.158,2.089,11.741,11.741,0,0,1-7.583,4.967c-7.206,1.646-13.312-2.371-13.792-8.909-.141-1.994.226-2.822,2.568-2.822,9.041.16,18.081.085,27.122,0,.79,0,1.684.4,2.3-.753,3.763-7.15-.141-18.175-7.667-21.186m-.715,16.529c-3.415-.16-6.839,0-10.264,0s-7.009-.056-10.508,0c-1.468,0-1.609-.48-1.2-1.731a14.939,14.939,0,0,1,16.407-9.822,9.276,9.276,0,0,1,7.78,9.285c0,1.515-.367,2.371-2.211,2.286" transform="translate(-27.383 -2.214)" fill="#fea900"/>
  </g>
</svg>
